<svg viewBox="0 0 1600 1088" xmlns="http://www.w3.org/2000/svg">
<rect x="0" y="0" width="1600" height="1088" rx="0" fill="#f4f5f7" opacity="1"/>
<rect x="0" y="0" width="1600" height="88" rx="0" fill="#e9eaec" opacity="1"/>
<rect x="0" y="0" width="1600" height="40" rx="0" fill="#dcdde0" opacity="1"/>
<circle cx="26" cy="20" r="6" fill="#ff5f57"/>
<circle cx="46" cy="20" r="6" fill="#febc2e"/>
<circle cx="66" cy="20" r="6" fill="#28c840"/>
<rect x="96" y="8" width="190" height="32" rx="8 8 0 0" fill="#f4f5f7" opacity="1"/>
<circle cx="116" cy="24" r="6" fill="#c7c9cd"/>
<text x="132" y="28" font-family="Inter, -apple-system, sans-serif" font-size="11.5" font-weight="500" fill="#5c5f66" text-anchor="start">New Tab</text>
<text x="1570" y="26" font-family="Inter, -apple-system, sans-serif" font-size="18" font-weight="400" fill="#8a8d93" text-anchor="middle">+</text>
<rect x="0" y="40" width="1600" height="48" rx="0" fill="#f4f5f7" opacity="1"/>
<circle cx="32" cy="64" r="12" fill="none"/>
<circle cx="64" cy="64" r="12" fill="none"/>
<circle cx="96" cy="64" r="12" fill="none"/>
<text x="30" y="70" font-family="Inter, -apple-system, sans-serif" font-size="16" font-weight="400" fill="#b7b9bd" text-anchor="middle">&#8592;</text>
<text x="64" y="70" font-family="Inter, -apple-system, sans-serif" font-size="16" font-weight="400" fill="#d8d9db" text-anchor="middle">&#8594;</text>
<text x="98" y="70" font-family="Inter, -apple-system, sans-serif" font-size="15" font-weight="400" fill="#8a8d93" text-anchor="middle">&#8635;</text>
<rect x="130" y="50" width="1370" height="28" rx="14" fill="#ffffff" opacity="1"/>
<rect x="130" y="50" width="1370" height="28" rx="14" fill="none" stroke="#e0e1e4" stroke-width="1"/>
<text x="148" y="68" font-family="Inter, -apple-system, sans-serif" font-size="10" font-weight="400" fill="#9a9da3" text-anchor="middle">&#128274;</text>
<text x="164" y="68" font-family="Inter, -apple-system, sans-serif" font-size="12" font-weight="500" fill="#5c5f66" text-anchor="start">autovalue.app/estimate</text>
<circle cx="1544" cy="64" r="13" fill="#e2e3e6"/>
<text x="1544" y="68" font-family="Inter, -apple-system, sans-serif" font-size="10.5" font-weight="700" fill="#6b6e74" text-anchor="middle">R</text>
<text x="1576" y="70" font-family="Inter, -apple-system, sans-serif" font-size="14" font-weight="400" fill="#8a8d93" text-anchor="middle">&#8942;</text>
<rect x="0" y="88" width="1600" height="72" rx="0" fill="#ffffff" opacity="1"/>
<line x1="0" y1="160" x2="1600" y2="160" stroke="#e4e5e8" stroke-width="1"/>
<rect x="40" y="108" width="32" height="32" rx="9" fill="#e0a800" opacity="1"/>
<text x="56" y="130" font-family="Inter, -apple-system, sans-serif" font-size="16" font-weight="700" fill="#ffffff" text-anchor="middle">$</text>
<text x="86" y="130" font-family="Inter, -apple-system, sans-serif" font-size="17" font-weight="700" fill="#17181a" text-anchor="start">AutoValue</text>
<text x="320" y="130" font-family="Inter, -apple-system, sans-serif" font-size="14.5" font-weight="600" fill="#17181a" text-anchor="start">Estimate</text>
<line x1="316" y1="142" x2="372.8" y2="142" stroke="#e0a800" stroke-width="2"/>
<text x="440" y="130" font-family="Inter, -apple-system, sans-serif" font-size="14.5" font-weight="500" fill="#8a8d93" text-anchor="start">History</text>
<text x="560" y="130" font-family="Inter, -apple-system, sans-serif" font-size="14.5" font-weight="500" fill="#8a8d93" text-anchor="start">Compare</text>
<text x="690" y="130" font-family="Inter, -apple-system, sans-serif" font-size="14.5" font-weight="500" fill="#8a8d93" text-anchor="start">Settings</text>
<circle cx="1500" cy="124" r="16" fill="#fff3cf"/>
<text x="1500" y="129" font-family="Inter, -apple-system, sans-serif" font-size="13" font-weight="700" fill="#8a6a00" text-anchor="middle">R</text>
<text x="80" y="228" font-family="Inter, -apple-system, sans-serif" font-size="26" font-weight="700" fill="#17181a" text-anchor="start">Get your estimate</text>
<text x="80" y="258" font-family="Inter, -apple-system, sans-serif" font-size="14" font-weight="500" fill="#8a8d93" text-anchor="start">Eight regression models compared &#183; ensemble-weighted result</text>
<rect x="80" y="298" width="620" height="660" rx="18" fill="#ffffff" stroke="#e9eaec" stroke-width="1" opacity="1"/>
<text x="116" y="344" font-family="Inter, -apple-system, sans-serif" font-size="12.5" font-weight="600" fill="#8a8d93" text-anchor="start">Make</text>
<rect x="116" y="358" width="548" height="46" rx="10" fill="#f6f7f8" stroke="#e4e5e8" stroke-width="1" opacity="1"/>
<text x="134" y="387" font-family="Inter, -apple-system, sans-serif" font-size="14.5" font-weight="500" fill="#17181a" text-anchor="start">Toyota</text>
<text x="116" y="422" font-family="Inter, -apple-system, sans-serif" font-size="12.5" font-weight="600" fill="#8a8d93" text-anchor="start">Model</text>
<rect x="116" y="436" width="548" height="46" rx="10" fill="#f6f7f8" stroke="#e4e5e8" stroke-width="1" opacity="1"/>
<text x="134" y="465" font-family="Inter, -apple-system, sans-serif" font-size="14.5" font-weight="500" fill="#17181a" text-anchor="start">Camry</text>
<text x="116" y="500" font-family="Inter, -apple-system, sans-serif" font-size="12.5" font-weight="600" fill="#8a8d93" text-anchor="start">Model Year</text>
<rect x="116" y="514" width="548" height="46" rx="10" fill="#f6f7f8" stroke="#e4e5e8" stroke-width="1" opacity="1"/>
<text x="134" y="543" font-family="Inter, -apple-system, sans-serif" font-size="14.5" font-weight="500" fill="#17181a" text-anchor="start">2019</text>
<text x="116" y="578" font-family="Inter, -apple-system, sans-serif" font-size="12.5" font-weight="600" fill="#8a8d93" text-anchor="start">Mileage</text>
<rect x="116" y="592" width="548" height="46" rx="10" fill="#f6f7f8" stroke="#e4e5e8" stroke-width="1" opacity="1"/>
<text x="134" y="621" font-family="Inter, -apple-system, sans-serif" font-size="14.5" font-weight="500" fill="#17181a" text-anchor="start">42,500 mi</text>
<text x="116" y="656" font-family="Inter, -apple-system, sans-serif" font-size="12.5" font-weight="600" fill="#8a8d93" text-anchor="start">Fuel Type</text>
<rect x="116" y="670" width="548" height="46" rx="10" fill="#f6f7f8" stroke="#e4e5e8" stroke-width="1" opacity="1"/>
<text x="134" y="699" font-family="Inter, -apple-system, sans-serif" font-size="14.5" font-weight="500" fill="#17181a" text-anchor="start">Gasoline</text>
<text x="116" y="734" font-family="Inter, -apple-system, sans-serif" font-size="12.5" font-weight="600" fill="#8a8d93" text-anchor="start">Condition</text>
<rect x="116" y="748" width="104" height="36" rx="18" fill="#fff3cf" stroke="#e0a800" stroke-width="1" opacity="1"/>
<text x="168.0" y="771" font-family="Inter, -apple-system, sans-serif" font-size="12.5" font-weight="600" fill="#8a6a00" text-anchor="middle">Excellent</text>
<rect x="232" y="748" width="90" height="36" rx="18" fill="#f6f7f8" stroke="#e4e5e8" stroke-width="1" opacity="1"/>
<text x="277.0" y="771" font-family="Inter, -apple-system, sans-serif" font-size="12.5" font-weight="600" fill="#6b6e74" text-anchor="middle">Good</text>
<rect x="334" y="748" width="90" height="36" rx="18" fill="#f6f7f8" stroke="#e4e5e8" stroke-width="1" opacity="1"/>
<text x="379.0" y="771" font-family="Inter, -apple-system, sans-serif" font-size="12.5" font-weight="600" fill="#6b6e74" text-anchor="middle">Fair</text>
<rect x="116" y="802" width="548" height="52" rx="12" fill="#e0a800" opacity="1"/>
<text x="390.0" y="836" font-family="Inter, -apple-system, sans-serif" font-size="15" font-weight="700" fill="#17181a" text-anchor="middle">Estimate Price</text>
<rect x="740" y="298" width="780" height="260" rx="18" fill="#17181a" opacity="1"/>
<text x="780" y="354" font-family="Inter, -apple-system, sans-serif" font-size="12.5" font-weight="700" fill="#c9ccd1" text-anchor="start" letter-spacing="0.08em">ESTIMATED VALUE</text>
<text x="780" y="428" font-family="Inter, -apple-system, sans-serif" font-size="52" font-weight="700" fill="#ffffff" text-anchor="start">$18,400</text>
<text x="780" y="466" font-family="Inter, -apple-system, sans-serif" font-size="14" font-weight="500" fill="#9a9da3" text-anchor="start">Range $17,100 &#8211; $19,700  &#183;  92% confidence</text>
<rect x="780" y="500" width="150" height="30" rx="15" fill="#2fbf71" opacity="0.15"/>
<text x="855" y="520" font-family="Inter, -apple-system, sans-serif" font-size="12.5" font-weight="700" fill="#3fd486" text-anchor="middle">R&#178; 0.82 &#183; XGBoost</text>
<rect x="740" y="588" width="780" height="420" rx="18" fill="#ffffff" stroke="#e9eaec" stroke-width="1" opacity="1"/>
<text x="776" y="628" font-family="Inter, -apple-system, sans-serif" font-size="15" font-weight="700" fill="#17181a" text-anchor="start">What moved this estimate</text>
<line x1="1130.0" y1="654" x2="1130.0" y2="938" stroke="#e4e5e8" stroke-width="1"/>
<rect x="1130.0" y="668" width="221.0" height="26" rx="6" fill="#2fbf71" opacity="0.85"/>
<text x="1363.0" y="686" font-family="Inter, -apple-system, sans-serif" font-size="13" font-weight="500" fill="#4a4d53" text-anchor="start">Model Year</text>
<rect x="968.8" y="722" width="161.2" height="26" rx="6" fill="#ff6b6b" opacity="0.85"/>
<text x="956.8" y="740" font-family="Inter, -apple-system, sans-serif" font-size="13" font-weight="500" fill="#4a4d53" text-anchor="end">Mileage</text>
<rect x="1130.0" y="776" width="104.0" height="26" rx="6" fill="#2fbf71" opacity="0.85"/>
<text x="1246.0" y="794" font-family="Inter, -apple-system, sans-serif" font-size="13" font-weight="500" fill="#4a4d53" text-anchor="start">Brand: Toyota</text>
<rect x="1052.0" y="830" width="78.0" height="26" rx="6" fill="#ff6b6b" opacity="0.85"/>
<text x="1040.0" y="848" font-family="Inter, -apple-system, sans-serif" font-size="13" font-weight="500" fill="#4a4d53" text-anchor="end">Accident History</text>
<rect x="1130.0" y="884" width="39.0" height="26" rx="6" fill="#2fbf71" opacity="0.85"/>
<text x="1181.0" y="902" font-family="Inter, -apple-system, sans-serif" font-size="13" font-weight="500" fill="#4a4d53" text-anchor="start">Fuel Type</text>
</svg>